<svg xmlns="http://www.w3.org/2000/svg" viewBox="0 0 98 98">
  <path
    d="M 121.609 55.823 C 121.329 56.276, 119.278 57.248, 117.050 57.983 C 112.510 59.482, 111.727 61.930, 114.915 64.659 C 116.230 65.785, 116.566 66.801, 115.988 67.900 C 115.525 68.780, 114.894 70.309, 114.586 71.297 C 114.279 72.285, 113.458 72.973, 112.763 72.825 C 112.069 72.677, 110.170 73.806, 108.544 75.334 C 106.056 77.671, 105.772 78.405, 106.749 79.970 C 108.365 82.557, 106.773 83.617, 100 84.464 C 95.800 84.990, 93.983 85.769, 92.313 87.763 C 90.343 90.116, 89.795 90.273, 86.785 89.349 C 83.081 88.212, 79.499 89.257, 78.541 91.754 C 77.815 93.645, 79.708 96, 81.956 96 C 84.519 96, 84.790 96.678, 83.988 101.067 C 83.312 104.763, 83.470 105.192, 85.986 106.493 C 88.740 107.917, 90.206 110.578, 91.771 116.993 C 92.513 120.032, 93.107 120.565, 96.339 121.090 C 101.248 121.888, 106.890 126.596, 108.469 131.214 C 109.168 133.256, 109.521 135.145, 109.255 135.411 C 108.989 135.678, 109.773 137.965, 110.998 140.495 C 113.096 144.830, 113.127 145.202, 111.532 146.964 C 109.159 149.587, 110.921 152.665, 114.861 152.777 C 119.519 152.909, 122.206 148.903, 120.613 144.201 C 119.561 141.096, 122.284 137, 125.401 137 C 126.696 137, 128.315 136.325, 129 135.500 C 129.685 134.675, 130.802 134, 131.483 134 C 132.164 134, 134.293 132.933, 136.215 131.629 C 140.248 128.892, 142.144 129.444, 144.526 134.050 C 145.620 136.165, 146.785 137, 148.642 137 C 150.822 137, 151.142 136.650, 150.656 134.793 C 150.269 133.313, 150.923 131.479, 152.640 129.227 C 154.049 127.380, 155.450 126.116, 155.752 126.419 C 156.055 126.721, 156.879 126.188, 157.584 125.234 C 158.611 123.845, 159.117 123.749, 160.133 124.750 C 160.830 125.438, 162.744 126, 164.387 126 L 167.374 126 164.687 123.195 C 161.260 119.618, 161.309 118.699, 165 117.306 C 166.705 116.663, 168 115.443, 168 114.482 C 168 113.551, 169.238 110.925, 170.750 108.645 C 172.262 106.365, 174.108 102.768, 174.851 100.651 C 176.517 95.900, 175.407 94.429, 170.475 94.854 C 168.139 95.055, 166.813 94.675, 166.437 93.698 C 166.105 92.831, 163.827 91.969, 160.811 91.569 L 155.742 90.897 156.352 86.448 C 156.877 82.621, 156.713 82, 155.181 82 C 154.201 82, 152.972 81.594, 152.450 81.097 C 151.928 80.600, 150.600 80.033, 149.500 79.836 C 148.078 79.581, 147.355 78.469, 147 75.989 C 146.619 73.333, 146.022 72.500, 144.500 72.500 C 143.125 72.500, 142.392 71.718, 142.155 70 C 141.771 67.220, 138.417 63.516, 137.552 64.916 C 136.865 66.028, 133.514 65.333, 129.281 63.200 C 127.287 62.196, 126.496 61.311, 127.202 60.875 C 128.016 60.372, 127.858 59.432, 126.648 57.585 C 124.980 55.040, 122.606 54.210, 121.609 55.823 Z"
    fill="#c9922f"
    transform="translate(-78, -55)"
  />
</svg>
